{"title":"The.Hunt.[Jagten].2012.DVDRip.XviD.AC3.HORiZON-ArtSubs","uid":8280201,"size":1435683406,"categoryP":"video","categoryS":"movies","magnet":"?xt=urn:btih:38c3eaf2a64bbe72ab8507be83c4a4a2010abd88&amp;dn=The.Hunt.%5BJagten%5D.2012.DVDRip.XviD.AC3.HORiZON-ArtSubs&amp;tr=udp%3A%2F%2Ftracker.openbittorrent.com%3A80&amp;tr=udp%3A%2F%2Fopen.demonii.com%3A1337&amp;tr=udp%3A%2F%2Ftracker.coppersurfer.tk%3A6969&amp;tr=udp%3A%2F%2Fexodus.desync.com%3A6969","seeders":62,"leechers":3,"uploader":"lletaif","files":1,"time":1363814172,"description":"Title:\nThe Hunt Aka Jagten\n\nCountry:\nDenmark/2012\n\nLanguage:\nDanish, English, Polish\n\nNo Subtitle\n\nDirector:\nThomas Vinterberg\n\nWriters:\nTobias Lindholm, Thomas Vinterberg\n\nStars:\nMads Mikkelsen, Thomas Bo Larsen, Annika Wedderkopp\n\nSynopsis:\nA teacher lives a lonely life, all the while struggling over his son's custody. His life slowly gets better as he finds love and receives good news from his son, but his new luck is about to be brutally shattered by an innocent little lie. \n\nTrivia:\n\n* Nominated BAFTA Film Award 2012, Film Not in the English Language\n\n* Won Best Actor Cannes Film Festival 2012, Mads Mikkelsen \n\nImdb: &lt;a href=&quot;\nhttp://www.imdb.com/title/tt2106476&quot; rel=&quot;nofollow&quot; target=&quot;_NEW&quot;&gt;\nhttp://www.imdb.com/title/tt2106476&lt;/a&gt;\n\nTrailer: &lt;a href=&quot;\nhttp://www.bandes-annonces.fr/film-2012/bande-annonce-lachasse.html&quot; rel=&quot;nofollow&quot; target=&quot;_NEW&quot;&gt;\nhttp://www.bandes-annonces.fr/film-2012/bande-annonce-lachasse.html&lt;/a&gt;\n\n\nMedia Info:\n\nGeneral\nComplete name                            : The.Hunt.[Jagten].2012.DVDRip.XviD.AC3.HORiZON-ArtSubs\nFormat                                   : AVI\nFormat/Info                              : Audio Video Interleave\nFormat profile                           : OpenDML\nFile size                                : 1.34 GiB\nDuration                                 : 1h 55mn\nOverall bit rate                         : 1 657 Kbps\nMovie name                               : Ohota.2012.P.HDRip.IRONCLUB_Epidemz.Net\nWriting application                      : Lavf52.94.0\nOriginal source form/Name                : Movie\n\nVideo\nID                                       : 0\nFormat                                   : MPEG-4 Visual\nFormat profile                           : Simple@L3\nFormat settings, BVOP                    : No\nFormat settings, QPel                    : No\nFormat settings, GMC                     : No warppoints\nFormat settings, Matrix                  : Default (H.263)\nCodec ID                                 : XVID\nCodec ID/Hint                            : XviD\nDuration                                 : 1h 55mn\nBit rate                                 : 1 421 Kbps\nWidth                                    : 720 pixels\nHeight                                   : 304 pixels\nDisplay aspect ratio                     : 2.35:1\nFrame rate                               : 24.000 fps\nColor space                              : YUV\nChroma subsampling                       : 4:2:0\nBit depth                                : 8 bits\nScan type                                : Progressive\nCompression mode                         : Lossy\nBits/(Pixel*Frame)                       : 0.270\nStream size                              : 1.15 GiB (86%)\nWriting library                          : XviD 1.2.1 (UTC 2008-12-04)\n\nAudio\nID                                       : 1\nFormat                                   : AC-3\nFormat/Info                              : Audio Coding 3\nMode extension                           : CM (complete main)\nFormat settings, Endianness              : Big\nCodec ID                                 : 2000\nDuration                                 : 1h 55mn\nBit rate mode                            : Constant\nBit rate                                 : 224 Kbps\nChannel(s)                               : 2 channels\nChannel positions                        : Front: L R\nSampling rate                            : 48.0 KHz\nBit depth                                : 16 bits\nCompression mode                         : Lossy\nStream size                              : 185 MiB (14%)\nAlignment                                : Aligned on interleaves\nInterleave, duration                     : 32 ms (0.77 video frame)\n\n","torrent":{"xt":"urn:btih:38c3eaf2a64bbe72ab8507be83c4a4a2010abd88","amp;dn":"The.Hunt.%5BJagten%5D.2012.DVDRip.XviD.AC3.HORiZON-ArtSubs","amp;tr":["udp%3A%2F%2Ftracker.openbittorrent.com%3A80","udp%3A%2F%2Fopen.demonii.com%3A1337","udp%3A%2F%2Ftracker.coppersurfer.tk%3A6969","udp%3A%2F%2Fexodus.desync.com%3A6969"],"infoHash":"38c3eaf2a64bbe72ab8507be83c4a4a2010abd88","infoHashBuffer":{"type":"Buffer","data":[56,195,234,242,166,75,190,114,171,133,7,190,131,196,164,162,1,10,189,136]},"announce":[],"urlList":[]}}